<svg width="34" height="35" viewBox="0 0 34 35" fill="none" xmlns="http://www.w3.org/2000/svg">
<path d="M30.9996 11.9296C28.5515 13.3521 27.0446 15.874 27.0093 18.5973C27.0182 21.6815 28.9625 24.4677 31.9541 25.6761C31.3752 27.4427 30.5223 29.117 29.422 30.6444C27.8445 32.8012 26.1963 34.9538 23.6907 34.9538C21.1852 34.9538 20.5356 33.5691 17.6457 33.5691C14.7556 33.5691 13.8233 35 11.5299 35C9.23647 35 7.63677 33.0026 5.79858 30.5521C3.36815 27.1196 2.03365 23.0955 1.9541 18.9623C1.9541 12.1562 6.61167 8.55176 11.1985 8.55176C13.6333 8.55176 15.666 10.0707 17.1949 10.0707C18.7238 10.0707 20.9201 8.45943 23.6907 8.45943C26.5851 8.38804 29.3248 9.68891 30.9996 11.9296ZM17.3805 8.07336C17.2126 8.07336 17.0447 8.05658 16.8767 8.02721C16.8282 7.8174 16.806 7.6034 16.806 7.3936C16.8856 5.63961 17.6015 3.96115 18.8388 2.65196C20.2219 1.14135 22.1618 0.193022 24.2607 0C24.3094 0.230788 24.3359 0.465771 24.3314 0.704951C24.2873 2.49671 23.5935 4.21711 22.3739 5.58086C21.141 7.02853 19.3337 7.9307 17.3805 8.07756V8.07336Z" fill="white"/>
</svg>
