<svg width="33" height="50" viewBox="0 0 33 50" fill="none" xmlns="http://www.w3.org/2000/svg">
<g clip-path="url(#clip0_751_2666)">
<path d="M16.5 25.25C16.5 20.7401 20.156 17.084 24.666 17.084C29.1759 17.084 32.832 20.7401 32.832 25.25C32.832 29.76 29.1759 33.416 24.666 33.416C20.156 33.416 16.5 29.76 16.5 25.25Z" fill="#1ABCFE"/>
<path d="M0.167969 41.582C0.167969 37.0721 3.82401 33.416 8.33398 33.416H16.5V41.582C16.5 46.092 12.844 49.748 8.33398 49.748C3.82401 49.748 0.167969 46.092 0.167969 41.582Z" fill="#0ACF83"/>
<path d="M16.5 0.751953V17.0839H24.666C29.176 17.0839 32.832 13.4279 32.832 8.91796C32.832 4.408 29.176 0.751953 24.666 0.751953H16.5Z" fill="#FF7262"/>
<path d="M0.167969 8.91796C0.167969 13.4279 3.82401 17.0839 8.33398 17.0839H16.5V0.751953H8.33398C3.82401 0.751953 0.167969 4.408 0.167969 8.91796Z" fill="#F24E1E"/>
<path d="M0.167969 25.25C0.167969 29.76 3.82401 33.416 8.33398 33.416H16.5V17.084H8.33398C3.82401 17.084 0.167969 20.7401 0.167969 25.25Z" fill="#A259FF"/>
</g>
<defs>
<clipPath id="clip0_751_2666">
<rect width="33" height="49.5" fill="white" transform="translate(0 0.5)"/>
</clipPath>
</defs>
</svg>