<svg width="30" height="42" viewBox="0 0 30 42" fill="none" xmlns="http://www.w3.org/2000/svg">
<g clip-path="url(#clip0_225_4)">
<path fill-rule="evenodd" clip-rule="evenodd" d="M16.518 26.4059C16.533 26.3957 16.5477 26.385 16.562 26.3738L16.5917 26.3516L16.614 26.3331L16.6313 26.3185C16.6424 26.3091 16.6533 26.2997 16.6635 26.29C16.7737 26.1861 16.863 26.0622 16.9266 25.9249C16.9511 25.8752 16.9728 25.8241 16.9916 25.772C17.1866 25.2157 17.0033 24.6447 16.5824 24.4973L16.5087 26.4121C16.5087 26.4121 16.5118 26.4097 16.5136 26.4087L16.5156 26.4076L16.518 26.4059ZM29.9117 11.4665L27.5383 21.5374C27.5173 21.6273 27.4905 21.8517 27.498 22.1526C27.5056 22.4535 27.5436 22.6754 27.5689 22.7636M27.5689 22.7636L28.2845 25.2396C28.5264 26.0774 28.414 26.9969 27.8933 27.7473C27.6085 28.1577 27.2339 28.4713 26.8108 28.6822L27.2661 30.2055C27.5015 30.9936 27.4133 31.7869 27.1827 32.4278C26.9521 33.0691 26.5152 33.7352 25.8342 34.1931L25.8333 34.1937L15.7092 40.9919C15.1099 41.3938 14.0678 41.7751 12.9965 41.2308C11.9237 40.6858 11.618 39.6175 11.5912 38.8948L11.5911 38.8921L11.5823 38.6452C11.574 38.6213 11.5584 38.5851 11.5341 38.5438C11.5096 38.502 11.4853 38.4704 11.4683 38.4513L4.4748 34.1976C3.10884 33.3657 2.49497 31.5887 3.07631 30.0863L3.07716 30.0841L3.51066 28.9623C3.06869 28.7899 2.66223 28.507 2.33952 28.1069C1.74522 27.3699 1.59981 26.4391 1.79959 25.5995L2.44958 22.8788C2.52511 22.5602 2.52654 21.8609 2.45251 21.5455L0.0863544 11.4473C-0.102488 10.6401 0.0378463 9.84772 0.319042 9.21713C0.600318 8.58636 1.09538 7.95311 1.8213 7.55386L13.9834 0.876484C14.2699 0.719429 14.6564 0.556904 15.1128 0.511064C15.5841 0.463733 16.243 0.537686 16.8232 1.00866C17.17 1.2902 17.3839 1.62855 17.5106 1.9562C18.0042 1.86293 18.4953 1.86621 18.9211 1.91788C19.5073 1.98901 20.1917 2.17881 20.7858 2.57013L20.7878 2.57145L28.3642 7.57531C29.0379 8.02015 29.4802 8.6691 29.726 9.28722C29.9719 9.90551 30.0963 10.6804 29.9117 11.4665M16.188 4.50179C16 4.56847 15.8377 4.58276 15.7091 4.55231C15.6848 4.54655 15.6617 4.53919 15.6398 4.53028C15.6126 4.51917 15.5873 4.50565 15.5641 4.48983C15.5621 4.48848 15.5601 4.48711 15.5582 4.48572C15.3881 4.36506 15.3327 4.11714 15.4352 3.78337L15.6209 3.17903C15.637 3.12672 15.6495 3.07709 15.6584 3.03025C15.659 3.02709 15.6596 3.02395 15.6602 3.02082L15.6611 3.01588C15.694 2.83139 15.6719 2.69154 15.6042 2.60403C15.6022 2.60141 15.6001 2.59884 15.598 2.5963C15.5964 2.59437 15.5947 2.59247 15.5931 2.5906C15.478 2.46042 15.2493 2.46334 14.945 2.63019L2.78513 9.3063C2.22675 9.6134 1.88876 10.3719 2.03361 10.991L4.39959 21.0884C4.54506 21.7082 4.54259 22.7226 4.39526 23.3418L3.74526 26.0625C3.59793 26.6817 3.99845 27.1787 4.63668 27.1676L5.19939 27.1584C5.837 27.1479 6.17128 27.6246 5.94224 28.2184L4.94187 30.8072C4.71158 31.4011 4.97034 32.1577 5.5151 32.4895L12.5474 36.7667C13.0922 37.0979 13.5564 37.8891 13.5793 38.5255L13.5899 38.8209C13.6134 39.4567 14.0647 39.6867 14.5952 39.3309L24.7184 32.5333C25.2477 32.1775 25.5318 31.3875 25.3498 30.7782L24.5822 28.2098C24.4002 27.5999 24.7698 27.0597 25.4055 27.0085L25.5275 26.998C26.1638 26.9487 26.5396 26.406 26.3632 25.7949L25.6476 23.3189C25.4711 22.7078 25.4458 21.7002 25.5912 21.0804L27.9646 11.0095C28.1101 10.3898 27.7944 9.59552 27.2626 9.24463L19.6856 4.24032C19.152 3.88882 18.2253 3.77658 17.6242 3.98995L16.188 4.50179ZM13.7521 24.4769C13.7652 24.4795 13.7779 24.4828 13.7912 24.4863L13.5944 24.4658C13.61 24.4647 13.6255 24.4636 13.6413 24.464C13.6581 24.464 13.6736 24.4663 13.6898 24.4687L13.6915 24.4689C13.7118 24.4703 13.7321 24.473 13.7521 24.4769Z" fill="white"/>
<path fill-rule="evenodd" clip-rule="evenodd" d="M27.498 22.1526C27.4905 21.8517 27.5173 21.6273 27.5383 21.5374L29.9117 11.4665C30.0963 10.6804 29.9719 9.90551 29.726 9.28722C29.4802 8.6691 29.0379 8.02015 28.3642 7.57531L20.7878 2.57145L20.7858 2.57013C20.1917 2.17881 19.5073 1.98901 18.9211 1.91788C18.4953 1.86621 18.0042 1.86293 17.5106 1.9562C17.3839 1.62855 17.17 1.2902 16.8232 1.00866C16.243 0.537686 15.5841 0.463733 15.1128 0.511064C14.6564 0.556904 14.2699 0.719429 13.9834 0.876484L1.8213 7.55386C1.09538 7.95311 0.600318 8.58636 0.319042 9.21713C0.0378463 9.84772 -0.102488 10.6401 0.0863544 11.4473L2.45251 21.5455C2.52654 21.8609 2.52511 22.5602 2.44958 22.8788L1.79959 25.5995C1.59981 26.4391 1.74522 27.3699 2.33952 28.1069C2.66223 28.507 3.06869 28.7899 3.51066 28.9623L3.07716 30.0841L3.07631 30.0863C2.49497 31.5887 3.10884 33.3657 4.4748 34.1976L11.4683 38.4513C11.4853 38.4704 11.5096 38.502 11.5341 38.5438C11.5584 38.5851 11.574 38.6213 11.5823 38.6452L11.5911 38.8921L11.5912 38.8948C11.618 39.6175 11.9237 40.6858 12.9965 41.2308C14.0678 41.7751 15.1099 41.3938 15.7092 40.9919L25.8333 34.1937L25.8342 34.1931C26.5152 33.7352 26.9521 33.0691 27.1827 32.4278C27.4133 31.7869 27.5015 30.9936 27.2661 30.2055L26.8108 28.6822C27.2339 28.4713 27.6085 28.1577 27.8933 27.7473C28.414 26.9969 28.5264 26.0774 28.2845 25.2396L27.5689 22.7636C27.5436 22.6754 27.5056 22.4535 27.498 22.1526ZM27.2626 9.24463C27.7944 9.59552 28.1101 10.3898 27.9646 11.0095L25.5912 21.0804C25.4458 21.7002 25.4711 22.7078 25.6476 23.3189L26.3632 25.7949C26.5396 26.406 26.1638 26.9487 25.5275 26.998L25.4055 27.0085C24.7698 27.0597 24.4002 27.5999 24.5822 28.2098L25.3498 30.7782C25.5318 31.3875 25.2477 32.1775 24.7184 32.5333L14.5952 39.3309C14.0647 39.6867 13.6134 39.4567 13.5899 38.8209L13.5793 38.5255C13.5564 37.8891 13.0922 37.0979 12.5474 36.7667L5.5151 32.4895C4.97034 32.1577 4.71158 31.4011 4.94187 30.8072L5.94224 28.2184C6.17128 27.6246 5.837 27.1479 5.19939 27.1584L4.63668 27.1676C3.99845 27.1787 3.59793 26.6817 3.74526 26.0625L4.39526 23.3418C4.54259 22.7226 4.54506 21.7082 4.39959 21.0884L2.03361 10.991C1.88876 10.3719 2.22675 9.6134 2.78513 9.3063L14.945 2.63019C15.2493 2.46334 15.478 2.46042 15.5931 2.5906L15.598 2.5963C15.6001 2.59884 15.6022 2.60141 15.6042 2.60403C15.6006 2.5994 15.5969 2.59493 15.5931 2.5906C15.478 2.46042 15.2493 2.46334 14.945 2.63019L2.78513 9.3063C2.22675 9.6134 1.88876 10.3719 2.03361 10.991L4.39959 21.0884C4.54506 21.7082 4.54259 22.7226 4.39526 23.3418L3.74526 26.0625C3.59793 26.6817 3.99845 27.1787 4.63668 27.1676L5.19939 27.1584C5.837 27.1479 6.17128 27.6246 5.94224 28.2184L4.94187 30.8072C4.71158 31.4011 4.97034 32.1577 5.5151 32.4895L12.5474 36.7667C13.0922 37.0979 13.5564 37.8891 13.5793 38.5255L13.5899 38.8209C13.6134 39.4567 14.0647 39.6867 14.5952 39.3309L24.7184 32.5333C25.2477 32.1775 25.5318 31.3875 25.3498 30.7782L24.5822 28.2098C24.4002 27.5999 24.7698 27.0597 25.4055 27.0085L25.5275 26.998C26.1638 26.9487 26.5396 26.406 26.3632 25.7949L25.6476 23.3189C25.4711 22.7078 25.4458 21.7002 25.5912 21.0804L27.9646 11.0095C28.1101 10.3898 27.7944 9.59552 27.2626 9.24463L19.6856 4.24032C19.152 3.88882 18.2253 3.77658 17.6242 3.98995L16.188 4.50179C16 4.56847 15.8377 4.58276 15.7091 4.55231C15.6848 4.54655 15.6617 4.53919 15.6398 4.53028C15.6126 4.51917 15.5873 4.50565 15.5641 4.48983C15.5621 4.48848 15.5601 4.48711 15.5582 4.48572C15.3881 4.36506 15.3327 4.11714 15.4352 3.78337L15.6209 3.17903C15.637 3.12672 15.6495 3.07709 15.6584 3.03025C15.659 3.02709 15.6596 3.02395 15.6602 3.02082L15.6611 3.01588C15.6602 3.02063 15.6593 3.02544 15.6584 3.03025C15.6495 3.07709 15.637 3.12672 15.6209 3.17903L15.4352 3.78337C15.3327 4.11714 15.3881 4.36506 15.5582 4.48572C15.5601 4.48711 15.5621 4.48848 15.5641 4.48983C15.5873 4.50565 15.6126 4.51917 15.6398 4.53028C15.6617 4.53919 15.6848 4.54655 15.7091 4.55231C15.8377 4.58276 16 4.56847 16.188 4.50179L17.6242 3.98995C18.2253 3.77658 19.152 3.88882 19.6856 4.24032L27.2626 9.24463ZM15.6584 3.03025C15.6593 3.02544 15.6602 3.02063 15.6611 3.01588L15.6602 3.02082C15.6596 3.02395 15.659 3.02709 15.6584 3.03025ZM15.6042 2.60403C15.6022 2.60141 15.6001 2.59884 15.598 2.5963L15.5931 2.5906C15.5969 2.59493 15.6006 2.5994 15.6042 2.60403ZM15.8506 33.7013L18.6759 32.1614C18.8709 32.0492 19.3011 31.8987 19.2764 31.6064C19.2714 31.5478 19.2337 31.3844 19.0127 31.3733L19.0152 31.3715H10.9837L10.9868 31.3733C10.7658 31.3844 10.728 31.5478 10.7225 31.6064C10.6977 31.8987 11.1292 32.0492 11.3229 32.1614L14.1482 33.7013C14.1482 33.7013 15.0223 34.1551 15.8506 33.7013ZM21.924 19.8156C21.9271 19.7681 21.9284 19.7206 21.9271 19.6738C21.9292 19.4054 21.8636 19.1402 21.7365 18.9036C21.5947 18.6421 21.3106 18.401 21.0289 18.3387C20.9292 18.3152 20.824 18.3072 20.7188 18.3078C20.2607 18.3128 19.771 18.5151 19.3705 18.6748C18.5818 18.9868 16.6857 19.3519 15.4575 19.3704H14.5389C13.3094 19.3525 11.4139 18.9868 10.6247 18.6748C10.2248 18.5157 9.73387 18.3134 9.27701 18.3078C9.17054 18.3072 9.06654 18.3159 8.96626 18.3387C8.68521 18.4016 8.40045 18.6421 8.25807 18.9036C8.1256 19.1453 8.07174 19.4031 8.06988 19.6695V19.6738C8.06865 19.72 8.06988 19.7681 8.07298 19.8162C8.10517 20.5828 8.50569 21.4085 8.73721 22.0498C9.03807 22.8842 9.11173 24.067 9.51844 24.8767C9.56337 24.9753 9.61724 25.0696 9.67939 25.1585C9.85334 25.4058 10.1047 25.4607 10.3758 25.5285C10.6185 25.5895 10.9713 25.682 10.9571 26.0107C10.9447 26.3018 10.6804 26.459 10.4606 26.5596C10.205 26.6767 9.99077 26.8075 9.80011 27.0264C9.15754 27.7695 8.91735 29.4246 9.74934 30.1252C10.0972 30.4175 10.5405 30.4878 10.9763 30.4964H19.0195C19.4553 30.4884 19.8979 30.4175 20.2464 30.1252C21.0784 29.4246 20.8376 27.7695 20.1957 27.0264C20.0062 26.8075 19.7908 26.6761 19.5358 26.5589C19.3148 26.4584 19.0511 26.3018 19.0374 26.0101C19.0238 25.682 19.3779 25.5902 19.6193 25.5285L19.6395 25.5235C19.9035 25.459 20.1461 25.3996 20.3164 25.1585C20.3786 25.0693 20.433 24.975 20.4792 24.8767C20.8847 24.067 20.9583 22.8842 21.2592 22.0498C21.4895 21.4085 21.8906 20.5834 21.924 19.8156Z" fill="white"/>
<path d="M12.0601 20.6729C11.8222 20.6729 11.594 20.767 11.4258 20.9346C11.2576 21.1022 11.1631 21.3295 11.1631 21.5664C11.1631 21.8034 11.2576 22.0307 11.4258 22.1983C11.594 22.3659 11.8222 22.46 12.0601 22.46C12.5553 22.46 12.9558 22.0592 12.9558 21.5658C12.9564 21.0725 12.5559 20.6729 12.0601 20.6729Z" fill="white"/>
<path d="M17.94 20.6729C17.4448 20.6729 17.0443 21.0725 17.0443 21.5658C17.0411 21.6849 17.062 21.8035 17.1056 21.9144C17.1492 22.0254 17.2146 22.1265 17.2981 22.2119C17.3815 22.2973 17.4813 22.3651 17.5915 22.4114C17.7017 22.4577 17.8201 22.4816 17.9397 22.4816C18.0593 22.4816 18.1777 22.4577 18.288 22.4114C18.3982 22.3651 18.4979 22.2973 18.5814 22.2119C18.6649 22.1265 18.7303 22.0254 18.7739 21.9144C18.8175 21.8035 18.8383 21.6849 18.8352 21.5658C18.8352 21.0725 18.4334 20.6729 17.94 20.6729Z" fill="white"/>
<path d="M16.5824 24.4975C16.546 24.4849 16.5085 24.4758 16.4703 24.4704C16.4555 24.4685 16.4406 24.4685 16.4251 24.4667C16.4022 24.466 16.3806 24.4636 16.3589 24.4642C16.3416 24.4642 16.3242 24.4673 16.3081 24.4691C16.2876 24.4708 16.2671 24.4734 16.2469 24.4771C16.2301 24.4802 16.2153 24.4845 16.1992 24.4889C16.1634 24.4985 16.1283 24.5102 16.094 24.524C16.0378 24.548 15.984 24.5769 15.933 24.6103L15.8909 24.6406C15.8785 24.6504 15.8655 24.6591 15.8538 24.6702C15.8109 24.704 15.7708 24.7411 15.7337 24.7812C15.652 24.8693 15.5938 24.9847 15.5325 25.0975C15.452 25.2307 15.3678 25.3584 15.2564 25.4379C15.2319 25.4545 15.2055 25.4682 15.1778 25.4786C15.1209 25.5003 15.0609 25.5128 15.0001 25.5156C14.9391 25.5128 14.8789 25.5003 14.8218 25.4786C14.7942 25.4681 14.7678 25.4544 14.7432 25.4379C14.6324 25.3584 14.5482 25.2307 14.4684 25.0975C14.4071 24.9847 14.3489 24.8693 14.2665 24.7805C14.2291 24.7409 14.189 24.7038 14.1465 24.6695L14.1087 24.6406L14.0666 24.611C14.0473 24.5978 14.0275 24.5855 14.0072 24.574L13.97 24.5536C13.9488 24.5428 13.9271 24.5329 13.905 24.524L13.8629 24.5074C13.8424 24.5002 13.8215 24.494 13.8004 24.4889C13.7973 24.4881 13.7942 24.4873 13.7912 24.4865L13.5944 24.466C13.588 24.4665 13.5816 24.4669 13.5751 24.4673C13.559 24.4679 13.5441 24.4679 13.5299 24.4704C13.4917 24.4755 13.4541 24.4846 13.4178 24.4975C12.9969 24.6455 12.8137 25.2153 13.0087 25.7722C13.0418 25.8644 13.0839 25.9532 13.1343 26.0373C13.1393 26.0447 13.143 26.0527 13.1479 26.0595C13.2012 26.144 13.2625 26.2186 13.3299 26.2828L13.3361 26.2895C13.3516 26.305 13.3683 26.3191 13.3857 26.3327C13.3925 26.3389 13.3999 26.3463 13.4073 26.3512C13.4172 26.3598 13.4277 26.3666 13.437 26.374C13.4519 26.3851 13.4667 26.3968 13.4816 26.4067L13.4915 26.4123C13.6908 26.5418 13.9174 26.5868 14.1242 26.514C14.1559 26.5027 14.1862 26.4878 14.2145 26.4696L14.2257 26.4628C14.4708 26.3 14.5179 25.9411 14.82 25.8862C14.8794 25.8759 14.9393 25.8689 14.9995 25.8653C15.0676 25.869 15.132 25.8776 15.1784 25.8862C15.4817 25.9411 15.5288 26.3 15.7727 26.4628C15.8044 26.4839 15.8385 26.5013 15.8742 26.5146C16.0822 26.5868 16.3094 26.5418 16.5087 26.4123L16.5824 24.4975Z" fill="white"/>
</g>
<defs>
<clipPath id="clip0_225_4">
<rect width="30" height="42" fill="white"/>
</clipPath>
</defs>
</svg>
