<svg width="50" height="50" viewBox="0 0 50 50" fill="none" xmlns="http://www.w3.org/2000/svg">
<g id="GSAP">
<g id="Group 1638">
<path id="Vector" fill-rule="evenodd" clip-rule="evenodd" d="M0 12.4998C0 5.59615 5.59642 -0.000244141 12.5001 -0.000244141C19.4036 -0.000244141 25 5.59615 25 12.4998C25 19.4035 19.4036 25 12.5001 25C19.4036 25 25 30.5962 25 37.4999C25 44.4036 19.4036 50 12.5001 50C5.59642 50 0 44.4036 0 37.4999C0 30.5962 5.59642 25 12.5001 25C5.59642 25 0 19.4035 0 12.4998Z" fill="url(#paint0_linear_751_2661)"/>
<path id="Vector_2" fill-rule="evenodd" clip-rule="evenodd" d="M50.0001 12.4998C50.0001 5.59615 44.4037 -0.000244141 37.5001 -0.000244141C30.5964 -0.000244141 25 5.59615 25 12.4998C25 19.4035 30.5964 25 37.5001 25C30.5964 25 25 30.5962 25 37.4999C25 44.4036 30.5964 50 37.5001 50C44.4037 50 50.0001 44.4036 50.0001 37.4999C50.0001 30.5962 44.4037 25 37.5001 25C44.4037 25 50.0001 19.4035 50.0001 12.4998Z" fill="url(#paint1_linear_751_2661)"/>
</g>
</g>
<defs>
<linearGradient id="paint0_linear_751_2661" x1="12.5" y1="-0.000244141" x2="12.5" y2="50" gradientUnits="userSpaceOnUse">
<stop stop-color="#0AE448"/>
<stop offset="0.65" stop-color="#ABFF84"/>
</linearGradient>
<linearGradient id="paint1_linear_751_2661" x1="37.5" y1="-0.000244141" x2="37.5" y2="50" gradientUnits="userSpaceOnUse">
<stop stop-color="#0AE448"/>
<stop offset="0.65" stop-color="#ABFF84"/>
</linearGradient>
</defs>
</svg>