<svg width="31" height="33" viewBox="0 0 31 33" fill="none" xmlns="http://www.w3.org/2000/svg">
<path d="M23.1557 0.984375H7.84432C3.51201 0.984375 0 4.55129 0 8.95126V24.5018C0 28.9018 3.51201 32.4688 7.84432 32.4688H23.1557C27.488 32.4688 31 28.9018 31 24.5018V8.95126C31 4.55129 27.488 0.984375 23.1557 0.984375Z" fill="#00DDB3"/>
<path d="M15.1818 15.4348C16.7699 12.3273 18.7424 8.46704 24.0798 8.46704C24.279 8.46768 24.4763 8.50775 24.6605 8.58506C24.8466 8.66318 25.0156 8.77775 25.1582 8.92229C25.3006 9.06682 25.4136 9.23846 25.4908 9.42742C25.5679 9.61632 25.6075 9.81885 25.6075 10.0234C25.6075 10.2279 25.5679 10.4304 25.4908 10.6194C25.4136 10.8083 25.3006 10.9799 25.1582 11.1244C25.0156 11.269 24.8466 11.3836 24.6605 11.4617C24.4744 11.5398 24.2749 11.5799 24.0735 11.5797C20.8328 11.5797 19.5754 13.583 17.8906 16.8809L16.8516 18.8682L16.8459 18.8794C15.258 21.9869 13.2854 25.847 7.94804 25.847C7.74668 25.8472 7.54726 25.8071 7.36116 25.7289C7.17507 25.6508 7.00593 25.5362 6.86347 25.3917C6.72101 25.2471 6.60801 25.0756 6.5309 24.8866C6.45378 24.6976 6.41406 24.4951 6.41406 24.2906C6.41406 24.0862 6.45378 23.8835 6.5309 23.6947C6.60801 23.5058 6.72101 23.3341 6.86347 23.1896C7.00593 23.045 7.17507 22.9304 7.36116 22.8523C7.54726 22.7742 7.74668 22.7341 7.94804 22.7343C11.1888 22.7343 12.4462 20.731 14.1311 17.4331L15.1762 15.4458L15.1818 15.4348Z" fill="#FFFCE1"/>
</svg>