<svg width="45" height="51" viewBox="0 0 45 51" fill="none" xmlns="http://www.w3.org/2000/svg">
<g clip-path="url(#clip0_763_2583)">
<path d="M44.2459 21.7435C43.7486 28.4328 38.4324 34.4814 31.5973 34.7598V29.7003C31.5973 25.0651 28.2946 21.0597 23.7459 20.1759L6.8027 16.8841V5.45162C6.8027 2.37595 9.60811 0.062431 12.627 0.648918L30.0541 4.03543C39.6973 6.13272 44.8568 13.5273 44.2459 21.7462V21.7435ZM12.8135 37.7246L2.78649 35.776C1.34325 35.4949 0 36.6003 0 38.0733V45.0165C0 46.749 1.22703 48.2355 2.92703 48.5652L12.9541 50.5111C14.3973 50.7922 15.7405 49.6841 15.7405 48.2138V41.2733C15.7405 39.5436 14.5135 38.0544 12.8135 37.7246ZM22.9459 23.93L7.65135 20.957C5.44865 20.53 3.4027 22.2165 3.4027 24.4598V31.9976C3.44054 32.003 3.47838 32.0084 3.51622 32.0165L13.5432 33.9652C17.0324 34.6436 19.5676 37.7165 19.5676 41.2733V42.8463L23.4513 43.6003C25.6541 44.0273 27.7 42.3409 27.7 40.0976V29.6949C27.7 26.8814 25.7054 24.4651 22.9459 23.9273V23.93Z" fill="url(#paint0_linear_763_2583)"/>
</g>
<defs>
<linearGradient id="paint0_linear_763_2583" x1="44.2946" y1="0.557616" x2="-10.7744" y2="19.9351" gradientUnits="userSpaceOnUse">
<stop stop-color="#6B53FF"/>
<stop offset="1" stop-color="#8D49F7"/>
</linearGradient>
<clipPath id="clip0_763_2583">
<rect width="44.3243" height="50" fill="white" transform="translate(0 0.554932)"/>
</clipPath>
</defs>
</svg>