<svg width="30" height="33" viewBox="0 0 30 33" fill="none" xmlns="http://www.w3.org/2000/svg">
<mask id="mask0_389_1597" style="mask-type:luminance" maskUnits="userSpaceOnUse" x="0" y="0" width="30" height="33">
<path d="M0 0.5H29.586V32.776H0V0.5Z" fill="white"/>
</mask>
<g mask="url(#mask0_389_1597)">
<path fill-rule="evenodd" clip-rule="evenodd" d="M26.7498 10.075L26.5598 9.73897C26.3108 9.33074 25.9618 8.99276 25.5458 8.75696L16.3548 3.55296C15.9373 3.31529 15.4653 3.18988 14.9848 3.18896H14.5878C14.1074 3.18988 13.6354 3.31529 13.2178 3.55296L4.02684 8.77096C3.61184 9.00596 3.26684 9.34496 3.02684 9.75196L2.83484 10.088C2.59365 10.4952 2.46589 10.9596 2.46484 11.433V21.856C2.46584 22.328 2.59384 22.792 2.83484 23.201L3.02684 23.537C3.27284 23.94 3.61684 24.277 4.02684 24.518L13.2318 29.723C13.6473 29.9656 14.1208 30.0911 14.6018 30.086H14.9848C15.4658 30.086 15.9378 29.96 16.3548 29.723L25.5448 24.505C25.9648 24.275 26.3108 23.935 26.5448 23.523L26.7508 23.187C26.989 22.7784 27.1165 22.3148 27.1208 21.842V11.42C27.1195 10.9467 26.9907 10.4824 26.7498 10.075ZM14.5888 5.87796H14.9858L23.0128 10.424L14.7938 15.077L6.57584 10.424L14.5888 5.87796ZM16.1638 26.723L24.1768 22.177L24.3818 21.841V12.751L16.1638 17.417V26.723Z" fill="black"/>
<path fill-rule="evenodd" clip-rule="evenodd" d="M28.694 8.52707L28.895 8.87907C29.3461 9.6486 29.5849 10.5241 29.587 11.4161V21.8621C29.579 22.7502 29.3394 23.6209 28.892 24.3881L28.879 24.4111L28.676 24.7431C28.2197 25.5253 27.5604 26.1697 26.768 26.6081L17.592 31.8171C16.802 32.2671 15.903 32.5051 14.99 32.5071H14.612C13.6915 32.5137 12.786 32.2745 11.989 31.8141L2.77798 26.6051L2.75798 26.5941C2.00417 26.1507 1.37092 25.5287 0.913977 24.7831L0.893976 24.7511L0.691977 24.3971C0.241218 23.6274 0.00276981 22.752 0.000976562 21.8601V11.4291C0.00276981 10.5372 0.241218 9.66169 0.691977 8.89207L0.884977 8.55507L0.893976 8.54007C1.35323 7.76287 2.00838 7.11979 2.79398 6.67507L11.982 1.45907L11.983 1.45807C12.7758 1.00724 13.6719 0.769518 14.584 0.768066H14.99C15.903 0.770066 16.8 1.00807 17.59 1.45707L17.592 1.45907L26.782 6.66207C27.5595 7.10302 28.2117 7.73492 28.677 8.49807L28.694 8.52707ZM16.355 3.55307L25.546 8.75707C25.9615 8.9935 26.3103 9.33134 26.56 9.73907L26.752 10.0751C26.9929 10.4825 27.1206 10.9468 27.122 11.4201V21.8421C27.1177 22.3149 26.9902 22.7785 26.752 23.1871L26.546 23.5231C26.311 23.9351 25.966 24.2751 25.546 24.5051L16.356 29.7231C15.9384 29.9605 15.4664 30.0856 14.986 30.0861H14.602C14.121 30.0905 13.6477 29.9651 13.232 29.7231L4.02798 24.5191C3.61917 24.2787 3.27575 23.9414 3.02798 23.5371L2.83598 23.2011C2.59478 22.7938 2.46703 22.3294 2.46598 21.8561V11.4331C2.46649 10.9597 2.59428 10.4951 2.83598 10.0881L3.02798 9.75207C3.26894 9.34258 3.61394 9.00413 4.02798 8.77107L13.218 3.55307C13.6356 3.31574 14.1076 3.19067 14.588 3.19007H14.986C15.466 3.19007 15.938 3.31607 16.355 3.55307ZM23.012 10.4251L14.986 5.87807H14.588L6.57498 10.4241L14.794 15.0771L23.012 10.4241V10.4251ZM14.794 12.2841L18.077 10.4241L14.787 8.56207L11.507 10.4221L14.794 12.2841ZM16.164 17.4181V26.7241L24.176 22.1781L24.382 21.8421V12.7521L16.164 17.4181ZM21.916 16.9481L18.629 18.8141V22.5301L21.916 20.6651V16.9481Z" fill="url(#paint0_linear_389_1597)"/>
<path d="M14.5882 5.87817H14.9852L23.0122 10.4242L14.7932 15.0772L6.5752 10.4242L14.5882 5.87917V5.87817ZM24.1762 22.1782L16.1632 26.7242V17.4182L24.3812 12.7512V21.8422L24.1762 22.1782Z" fill="white"/>
</g>
<defs>
<linearGradient id="paint0_linear_389_1597" x1="0.00097655" y1="0.769067" x2="30.004" y2="3.82807" gradientUnits="userSpaceOnUse">
<stop stop-color="#FF7448"/>
<stop offset="0.5" stop-color="#FF4848"/>
<stop offset="1" stop-color="#6248FF"/>
</linearGradient>
</defs>
</svg>