<svg width="25" height="27" viewBox="0 0 25 27" fill="none" xmlns="http://www.w3.org/2000/svg">
<path fill-rule="evenodd" clip-rule="evenodd" d="M0.126953 2.4771C0.128001 2.68796 0.170587 2.89654 0.252278 3.09094C0.333969 3.28533 0.453164 3.46172 0.603052 3.61003C0.752939 3.75834 0.930582 3.87566 1.12583 3.95528C1.32107 4.03491 1.5301 4.07529 1.74095 4.0741H15.116C19.532 3.7741 22.238 9.4061 18.882 12.3901C17.896 13.2341 16.642 13.6541 15.116 13.6531H9.30595C9.09034 13.6438 8.87507 13.6782 8.67311 13.7542C8.47114 13.8303 8.28667 13.9465 8.1308 14.0957C7.97493 14.245 7.85088 14.4242 7.76614 14.6227C7.6814 14.8212 7.63771 15.0348 7.63771 15.2506C7.63771 15.4664 7.6814 15.68 7.76614 15.8785C7.85088 16.077 7.97493 16.2562 8.1308 16.4055C8.28667 16.5548 8.47114 16.6709 8.67311 16.747C8.87507 16.8231 9.09034 16.8574 9.30595 16.8481H15.726L21.506 26.0281C21.6607 26.2881 21.8818 26.5022 22.1467 26.6484C22.4115 26.7946 22.7105 26.8677 23.013 26.8601C24.487 26.9101 25.165 25.3801 24.358 24.1991L19.215 16.0221C27.241 12.2541 23.85 0.542102 15.112 0.887102H1.74195C1.3173 0.884964 0.909056 1.051 0.606441 1.34893C0.303826 1.64686 0.13144 2.05246 0.126953 2.4771Z" fill="url(#paint0_linear_389_1606)"/>
<defs>
<linearGradient id="paint0_linear_389_1606" x1="12.415" y1="0.879102" x2="12.415" y2="26.8621" gradientUnits="userSpaceOnUse">
<stop stop-color="#F45184"/>
<stop offset="1" stop-color="#DB469F"/>
</linearGradient>
</defs>
</svg>