<svg width="50" height="50" viewBox="0 0 50 50" fill="none" xmlns="http://www.w3.org/2000/svg">
<g clip-path="url(#clip0_767_2593)">
<path fill-rule="evenodd" clip-rule="evenodd" d="M18.2519 0.123169C17.5975 0.123777 16.9496 0.253283 16.3453 0.504292C15.741 0.755301 15.192 1.1229 14.7298 1.58608C14.2675 2.04927 13.9011 2.59898 13.6513 3.20381C13.4015 3.80864 13.2733 4.45675 13.2741 5.11113C13.2735 5.76543 13.4017 6.41344 13.6516 7.01817C13.9014 7.6229 14.2679 8.17249 14.7301 8.63558C15.1923 9.09867 15.7413 9.46618 16.3455 9.71713C16.9498 9.96809 17.5976 10.0976 18.2519 10.0982H23.2296V5.11113C23.2304 4.45675 23.1022 3.80864 22.8524 3.20381C22.6026 2.59898 22.2362 2.04927 21.7739 1.58608C21.3117 1.1229 20.7627 0.755301 20.1584 0.504292C19.5541 0.253283 18.9062 0.123777 18.2519 0.123169ZM18.2519 13.4241H4.97778C4.32348 13.4247 3.67571 13.5542 3.07145 13.8051C2.46719 14.0561 1.91827 14.4236 1.45604 14.8867C0.993813 15.3498 0.627322 15.8994 0.377494 16.5041C0.127666 17.1088 -0.000605154 17.7568 3.1e-06 18.4111C-0.000726835 19.0655 0.127455 19.7136 0.377228 20.3185C0.627001 20.9233 0.993473 21.473 1.45571 21.9362C1.91796 22.3994 2.46691 22.767 3.07123 23.018C3.67556 23.269 4.3234 23.3985 4.97778 23.3991H18.2519C18.9062 23.3985 19.5541 23.269 20.1584 23.018C20.7627 22.767 21.3117 22.3994 21.7739 21.9362C22.2362 21.473 22.6026 20.9233 22.8524 20.3185C23.1022 19.7136 23.2304 19.0655 23.2296 18.4111C23.2302 17.7568 23.102 17.1088 22.8521 16.5041C22.6023 15.8994 22.2358 15.3498 21.7736 14.8867C21.3114 14.4236 20.7624 14.0561 20.1582 13.8051C19.5539 13.5542 18.9062 13.4247 18.2519 13.4241Z" fill="#44BEDF"/>
<path fill-rule="evenodd" clip-rule="evenodd" d="M49.7775 18.4111C49.7781 17.7568 49.6498 17.1088 49.4 16.5041C49.1502 15.8994 48.7837 15.3498 48.3214 14.8867C47.8592 14.4236 47.3103 14.0561 46.706 13.8051C46.1018 13.5542 45.454 13.4247 44.7997 13.4241C44.1454 13.4247 43.4976 13.5542 42.8934 13.8051C42.2891 14.0561 41.7402 14.4236 41.278 14.8867C40.8157 15.3498 40.4492 15.8994 40.1994 16.5041C39.9496 17.1088 39.8213 17.7568 39.8219 18.4111V23.3991H44.7997C45.4541 23.3985 46.1019 23.269 46.7063 23.018C47.3106 22.767 47.8595 22.3994 48.3218 21.9362C48.784 21.473 49.1505 20.9233 49.4003 20.3185C49.65 19.7136 49.7782 19.0655 49.7775 18.4111ZM36.5034 18.4111V5.11113C36.5041 4.45675 36.376 3.80864 36.1262 3.20381C35.8764 2.59898 35.5099 2.04927 35.0477 1.58608C34.5855 1.1229 34.0365 0.755301 33.4322 0.504292C32.8279 0.253283 32.18 0.123777 31.5256 0.123169C30.8713 0.123777 30.2234 0.253283 29.6191 0.504292C29.0148 0.755301 28.4658 1.1229 28.0036 1.58608C27.5413 2.04927 27.1749 2.59898 26.9251 3.20381C26.6753 3.80864 26.5471 4.45675 26.5479 5.11113V18.4111C26.5471 19.0655 26.6753 19.7136 26.9251 20.3185C27.1749 20.9233 27.5413 21.473 28.0036 21.9362C28.4658 22.3994 29.0148 22.767 29.6191 23.018C30.2234 23.269 30.8713 23.3985 31.5256 23.3991C32.18 23.3985 32.8279 23.269 33.4322 23.018C34.0365 22.767 34.5855 22.3994 35.0477 21.9362C35.5099 21.473 35.8764 20.9233 36.1262 20.3185C36.376 19.7136 36.5041 19.0655 36.5034 18.4111Z" fill="#2EB67D"/>
<path fill-rule="evenodd" clip-rule="evenodd" d="M31.5256 50C32.18 49.9994 32.8279 49.8699 33.4322 49.6189C34.0365 49.3679 34.5855 49.0003 35.0477 48.5371C35.5099 48.0739 35.8764 47.5242 36.1262 46.9194C36.376 46.3146 36.5041 45.6665 36.5034 45.0121C36.504 44.3578 36.3757 43.7098 36.1259 43.105C35.8761 42.5003 35.5096 41.9507 35.0474 41.4876C34.5851 41.0245 34.0362 40.657 33.432 40.4061C32.8277 40.1551 32.1799 40.0257 31.5256 40.025H26.5479V45.0121C26.5471 45.6665 26.6753 46.3146 26.9251 46.9194C27.1749 47.5242 27.5413 48.0739 28.0036 48.5371C28.4658 49.0003 29.0148 49.3679 29.6191 49.6189C30.2234 49.8699 30.8713 49.9994 31.5256 50ZM31.5256 36.6991H44.7997C45.454 36.6985 46.1018 36.569 46.706 36.3181C47.3103 36.0671 47.8592 35.6996 48.3214 35.2365C48.7837 34.7734 49.1502 34.2238 49.4 33.6191C49.6498 33.0144 49.7781 32.3664 49.7775 31.7121C49.7782 31.0577 49.65 30.4096 49.4003 29.8048C49.1505 29.1999 48.784 28.6502 48.3218 28.187C47.8595 27.7238 47.3106 27.3563 46.7063 27.1052C46.1019 26.8542 45.4541 26.7247 44.7997 26.7241H31.5256C30.8713 26.7247 30.2234 26.8542 29.6191 27.1052C29.0148 27.3563 28.4658 27.7238 28.0036 28.187C27.5413 28.6502 27.1749 29.1999 26.9251 29.8048C26.6753 30.4096 26.5471 31.0577 26.5479 31.7121C26.5472 32.3664 26.6755 33.0144 26.9253 33.6191C27.1752 34.2238 27.5417 34.7734 28.0039 35.2365C28.4661 35.6996 29.015 36.0671 29.6193 36.3181C30.2236 36.569 30.8713 36.6985 31.5256 36.6991Z" fill="#ECB22E"/>
<path fill-rule="evenodd" clip-rule="evenodd" d="M4.21897e-06 31.7121C-0.000604035 32.3664 0.127668 33.0144 0.377495 33.6191C0.627323 34.2238 0.993814 34.7734 1.45604 35.2365C1.91827 35.6996 2.46719 36.0671 3.07145 36.3181C3.67571 36.569 4.32348 36.6985 4.97778 36.6991C5.63208 36.6985 6.27985 36.569 6.88411 36.3181C7.48838 36.0671 8.03729 35.6996 8.49952 35.2365C8.96175 34.7734 9.32824 34.2238 9.57807 33.6191C9.8279 33.0144 9.95617 32.3664 9.95556 31.7121V26.7241H4.97778C4.32333 26.7247 3.6754 26.8543 3.07102 27.1053C2.46664 27.3564 1.91764 27.7241 1.45539 28.1874C0.993134 28.6506 0.626682 29.2005 0.376963 29.8054C0.127245 30.4103 -0.000847427 31.0576 4.21897e-06 31.7121ZM13.2741 31.7121V45.0121C13.2733 45.6665 13.4015 46.3146 13.6513 46.9194C13.9011 47.5242 14.2675 48.0739 14.7298 48.5371C15.192 49.0003 15.741 49.3679 16.3453 49.6189C16.9496 49.8699 17.5975 49.9994 18.2519 50C18.9062 49.9994 19.5541 49.8699 20.1584 49.6189C20.7627 49.3679 21.3117 49.0003 21.7739 48.5371C22.2362 48.0739 22.6026 47.5242 22.8524 46.9194C23.1022 46.3146 23.2304 45.6665 23.2296 45.0121V31.713C23.2304 31.0586 23.1022 30.4105 22.8524 29.8057C22.6026 29.2009 22.2362 28.6511 21.7739 28.188C21.3117 27.7248 20.7627 27.3572 20.1584 27.1062C19.5541 26.8552 18.9062 26.7257 18.2519 26.725C17.5975 26.7257 16.9496 26.8552 16.3453 27.1062C15.741 27.3572 15.192 27.7248 14.7298 28.188C14.2675 28.6511 13.9011 29.2009 13.6513 29.8057C13.4015 30.4105 13.2733 31.0577 13.2741 31.7121Z" fill="#E01E5A"/>
</g>
<defs>
<clipPath id="clip0_767_2593">
<rect width="50" height="50" fill="white"/>
</clipPath>
</defs>
</svg>