<svg width="63" height="63" viewBox="0 0 63 63" fill="none" xmlns="http://www.w3.org/2000/svg">
<path fill-rule="evenodd" clip-rule="evenodd" d="M55.3004 0.600098H7.80039C3.70039 0.600098 0.400391 3.9001 0.400391 8.0001V55.6001C0.400391 59.7001 3.70039 63.0001 7.80039 63.0001H55.3004C59.4004 63.0001 62.7004 59.7001 62.7004 55.6001V8.0001C62.7004 3.9001 59.4004 0.600098 55.3004 0.600098ZM27.2004 45.5001C27.2004 46.9001 26.1004 48.0001 24.7004 48.0001H14.3004C12.9004 48.0001 11.8004 46.9001 11.8004 45.5001V14.6001C11.8004 13.2001 12.9004 12.1001 14.3004 12.1001H24.7004C26.1004 12.1001 27.2004 13.2001 27.2004 14.6001V45.5001ZM51.2004 31.3001C51.2004 32.7001 50.1004 33.8001 48.8004 33.8001H38.3004C36.9004 33.8001 35.8004 32.7001 35.8004 31.3001V14.6001C35.8004 13.2001 36.9004 12.1001 38.3004 12.1001H48.7004C50.1004 12.1001 51.2004 13.2001 51.2004 14.6001V31.3001Z" fill="url(#paint0_linear_750_2586)"/>
<defs>
<linearGradient id="paint0_linear_750_2586" x1="31.5454" y1="63.0001" x2="31.5454" y2="0.610101" gradientUnits="userSpaceOnUse">
<stop stop-color="#0050D3"/>
<stop offset="1" stop-color="#0082FF"/>
</linearGradient>
</defs>
</svg>